<?xml version="1.0" standalone="no"?>
<!DOCTYPE svg PUBLIC "-//W3C//DTD SVG 20010904//EN"
 "http://www.w3.org/TR/2001/REC-SVG-20010904/DTD/svg10.dtd">
<svg version="1.0" xmlns="http://www.w3.org/2000/svg"
 width="440.000000pt" height="440.000000pt" viewBox="0 0 440.000000 440.000000"
 preserveAspectRatio="xMidYMid meet">
<metadata>
Created by potrace 1.11, written by Peter Selinger 2001-2013
</metadata>
<g transform="translate(0.000000,440.000000) scale(0.100000,-0.100000)"
fill="#000000" stroke="none">
<path d="M0 2200 l0 -2200 2200 0 2200 0 0 2200 0 2200 -2200 0 -2200 0 0
-2200z m3605 993 c3 -38 9 -80 11 -95 3 -16 4 -28 2 -28 -90 -5 -236 -23 -275
-35 -80 -24 -133 -69 -172 -148 -32 -63 -35 -78 -39 -178 l-5 -109 207 0 206
0 0 -100 0 -100 -205 0 -205 0 0 -280 0 -280 -125 0 -125 0 0 280 0 280 -140
0 -140 0 0 100 0 100 138 0 139 0 6 98 c12 183 59 303 157 396 109 104 273
159 492 164 l66 2 7 -67z m-2995 -648 l0 -706 -122 3 -123 3 -3 703 -2 702
125 0 125 0 0 -705z m3420 0 l0 -706 -122 3 -123 3 -3 703 -2 702 125 0 125 0
0 -705z m-2027 70 c176 -46 282 -154 333 -340 11 -41 18 -119 21 -247 l5 -188
-125 0 -125 0 -4 178 c-6 200 -16 243 -75 311 -45 53 -93 77 -178 91 -141 23
-300 -24 -390 -115 -85 -84 -124 -207 -125 -387 l0 -78 -120 0 -120 0 0 380 0
380 120 0 120 0 0 -117 0 -116 31 46 c61 93 173 168 299 201 74 20 260 20 333
1z m-1393 -1230 l0 -256 -122 3 -123 3 -3 240 c-1 132 0 245 2 252 4 10 38 13
126 13 l120 0 0 -255z m730 0 l0 -255 -120 0 -120 0 0 255 0 255 120 0 120 0
0 -255z m1020 0 l0 -256 -122 3 -123 3 -3 240 c-1 132 0 245 2 252 4 10 38 13
126 13 l120 0 0 -255z m765 0 l0 -250 -120 0 -120 0 -3 240 c-1 132 0 245 3
253 3 10 33 12 122 10 l118 -3 0 -250z m905 0 l0 -256 -122 3 -123 3 -3 240
c-1 132 0 245 2 252 4 10 38 13 126 13 l120 0 0 -255z"/>
</g>
</svg>
