<?xml version="1.0" standalone="no"?>
<!DOCTYPE svg PUBLIC "-//W3C//DTD SVG 20010904//EN"
 "http://www.w3.org/TR/2001/REC-SVG-20010904/DTD/svg10.dtd">
<svg version="1.0" xmlns="http://www.w3.org/2000/svg"
 width="1772.000000pt" height="1772.000000pt" viewBox="0 0 1772.000000 1772.000000"
 preserveAspectRatio="xMidYMid meet">
<metadata>
Created by potrace 1.11, written by Peter Selinger 2001-2013
</metadata>
<g transform="translate(0.000000,1772.000000) scale(0.100000,-0.100000)"
fill="#000000" stroke="none">
<path d="M0 8860 l0 -8860 8860 0 8860 0 0 8860 0 8860 -8860 0 -8860 0 0
-8860z m4370 2160 l0 -4220 -735 0 -735 0 0 4220 0 4220 735 0 735 0 0 -4220z
m7840 485 c753 -82 1314 -318 1744 -735 216 -209 361 -410 501 -695 204 -415
313 -840 376 -1465 7 -72 13 -429 16 -962 l5 -848 -731 0 -730 0 -4 793 c-3
662 -6 814 -20 927 -113 911 -430 1401 -1067 1645 -395 152 -1023 184 -1564
79 -311 -61 -623 -186 -873 -351 -273 -179 -541 -455 -714 -734 -141 -226
-270 -558 -328 -844 -59 -287 -63 -350 -68 -957 l-5 -558 -729 0 -729 0 0
2255 0 2255 720 0 720 0 2 -712 3 -711 68 116 c529 903 1450 1436 2627 1521
124 9 642 -4 780 -19z m-7840 -7460 l0 -1495 -735 0 -735 0 0 1495 0 1495 735
0 735 0 0 -1495z m4380 0 l0 -1495 -730 0 -730 0 0 1495 0 1495 730 0 730 0 0
-1495z m6100 0 l0 -1495 -730 0 -730 0 0 1495 0 1495 730 0 730 0 0 -1495z"/>
</g>
</svg>
